 http://www.imdb.com/title/tt0379918/




General
Complete name                    : Oyster Farmer.mkv
Format                           : Matroska
File size                        : 1.57 GiB
Duration                         : 1h 27mn
Overall bit rate                 : 2 585 Kbps


Video
ID                               : 1
Format                           : AVC

Codec ID                         : V_MPEG4/ISO/AVC
Duration                         : 1h 27mn
Bit rate                         : 2 082 Kbps
Nominal bit rate                 : 2 119 Kbps
Width                            : 718 pixels
Height                           : 574 pixels
Display aspect ratio             : 16/9
Frame rate                       : 25.000 fps
Resolution                       : 24 bits
Colorimetry                      : 4:2:0
Scan type                        : Progressive
Bits/(Pixel*Frame)               : 0.202
Stream size                      : 1.27 GiB (81%)
Writing library                  : x264 core 79

Audio
ID                               : 2
Format                           : AC-3
Format/Info                      : Audio Coding 3
Codec ID                         : A_AC3
Duration                         : 1h 27mn
Bit rate mode                    : Constant
Bit rate                         : 448 Kbps
Channel(s)                       : 6 channels
Channel positions                : Front: L C R, Surround: L R, LFE
Sampling rate                    : 48.0 KHz
Stream size                      : 279 MiB (17%)
Language                         : English

Text #1
Language                         : Danish

Text #2
Language                         : Norwegian

Text #3
Language                         : Swedish

Text #4
Language                         : Finnish